<svg width="200" height="200" viewBox="0 0 200 200" fill="none" xmlns="http://www.w3.org/2000/svg">
<g clip-path="url(#clip0_43_16)">
<path d="M174.969 143.949C172.417 136.892 167.769 131.413 168.38 121.976C168.5 110.25 179.516 89.494 167.664 86.783C159.788 84.9814 154.984 95.3889 155.283 101.795C149.5 89.8807 153.559 67.9988 142.941 67.8787C135.267 67.7919 134.099 72.4016 133.179 76.4806C132.329 73.3416 131.991 67.1787 125.879 66.7029C117.185 66.0262 116.891 78.6113 116.942 81.3568C113.667 77.7287 111.121 78.2059 108.947 79.3516C103.011 82.48 103.435 93.629 104.219 100.825C107.543 131.34 120.194 147.46 131.98 158.691C151.822 167.117 176.004 148.409 174.969 143.949Z" fill="#FB5C1C" fill-opacity="0.7"/>
<path d="M155.402 100.849C155.277 100.834 155.151 100.843 155.03 100.876C154.909 100.909 154.796 100.966 154.698 101.043C154.599 101.12 154.516 101.215 154.454 101.324C154.392 101.433 154.352 101.553 154.337 101.677C154.085 103.705 154.228 104.96 154.352 106.087C154.366 106.211 154.404 106.332 154.464 106.442C154.525 106.552 154.606 106.648 154.704 106.727C154.802 106.805 154.914 106.863 155.034 106.898C155.154 106.933 155.28 106.944 155.405 106.93C155.529 106.916 155.65 106.878 155.76 106.818C155.87 106.758 155.966 106.676 156.045 106.579C156.123 106.481 156.181 106.369 156.216 106.248C156.251 106.128 156.262 106.002 156.248 105.878C156.123 104.74 156 103.767 156.23 101.914C156.246 101.789 156.237 101.663 156.204 101.542C156.17 101.422 156.114 101.309 156.037 101.21C155.96 101.111 155.864 101.028 155.755 100.966C155.646 100.904 155.526 100.865 155.402 100.849Z" fill="#593C27"/>
<path d="M155.091 105.053C155.091 105.053 150.934 105.981 147.22 109.627C143.507 113.272 140.239 119.7 141.754 130.29C141.772 130.415 141.814 130.534 141.878 130.642C141.941 130.75 142.026 130.844 142.126 130.919C142.226 130.995 142.34 131.049 142.462 131.081C142.583 131.112 142.71 131.118 142.834 131.101C142.958 131.083 143.077 131.041 143.185 130.977C143.292 130.913 143.386 130.828 143.461 130.728C143.536 130.628 143.591 130.514 143.622 130.393C143.652 130.271 143.659 130.145 143.641 130.021C142.194 119.909 145.23 114.253 148.557 110.987C151.884 107.721 155.506 106.912 155.506 106.912C155.753 106.857 155.968 106.707 156.103 106.494C156.239 106.281 156.284 106.023 156.23 105.776C156.203 105.654 156.152 105.538 156.08 105.435C156.008 105.333 155.916 105.245 155.81 105.178C155.705 105.111 155.586 105.065 155.463 105.044C155.339 105.022 155.213 105.025 155.091 105.053Z" fill="#593C27"/>
<path d="M133.182 75.5278C133.056 75.5273 132.932 75.5515 132.816 75.5991C132.7 75.6466 132.595 75.7165 132.506 75.8048C132.417 75.8931 132.346 75.9981 132.298 76.1137C132.25 76.2293 132.225 76.3532 132.225 76.4785C132.225 76.4785 132.206 81.4371 132.799 87.7192C133.392 94.0014 134.572 101.609 137.096 107.086C137.148 107.199 137.222 107.301 137.314 107.386C137.406 107.471 137.514 107.537 137.631 107.581C137.749 107.624 137.874 107.644 137.999 107.639C138.124 107.634 138.247 107.604 138.361 107.552C138.474 107.5 138.576 107.425 138.661 107.333C138.746 107.241 138.812 107.134 138.856 107.016C138.899 106.899 138.919 106.774 138.914 106.649C138.909 106.524 138.879 106.401 138.827 106.287C136.493 101.223 135.282 93.7249 134.698 87.5399C134.113 81.3548 134.132 76.4845 134.132 76.4845C134.133 76.3592 134.109 76.2351 134.061 76.1192C134.014 76.0033 133.944 75.8979 133.855 75.809C133.767 75.7202 133.662 75.6496 133.546 75.6014C133.431 75.5531 133.307 75.5281 133.182 75.5278Z" fill="#593C27"/>
<path d="M116.951 80.4038C116.699 80.4012 116.456 80.4989 116.275 80.6755C116.094 80.852 115.991 81.093 115.988 81.3455C115.988 81.3455 115.698 100.465 122.8 113.304C122.922 113.525 123.127 113.689 123.37 113.759C123.613 113.829 123.874 113.8 124.095 113.677C124.316 113.555 124.48 113.35 124.55 113.108C124.62 112.865 124.591 112.604 124.469 112.383C117.771 100.276 117.896 81.3664 117.896 81.3664C117.898 81.2412 117.874 81.1169 117.827 81.0007C117.78 80.8845 117.711 80.7786 117.623 80.6892C117.536 80.5998 117.431 80.5286 117.316 80.4796C117.2 80.4306 117.077 80.4049 116.951 80.4038Z" fill="#593C27"/>
<path d="M141.829 105.468C141.829 105.468 127.752 105.267 119.032 116.915C118.881 117.118 118.817 117.372 118.853 117.622C118.89 117.872 119.024 118.097 119.227 118.249C119.429 118.4 119.683 118.465 119.933 118.429C120.183 118.393 120.409 118.259 120.56 118.057C128.685 107.205 141.805 107.373 141.805 107.373C142.058 107.376 142.301 107.279 142.483 107.103C142.664 106.927 142.767 106.686 142.771 106.434C142.773 106.309 142.75 106.184 142.703 106.068C142.657 105.951 142.588 105.845 142.501 105.756C142.413 105.666 142.309 105.594 142.194 105.545C142.078 105.496 141.955 105.47 141.829 105.468Z" fill="#593C27"/>
<path d="M64.8093 158.897C77.141 145.775 97.1867 124.048 96.5347 91.4626C96.4165 85.5553 97.434 76.4059 90.9431 74.4805C88.0779 73.6305 85.27 77.414 84.153 80.6097C83.3571 76.2304 83.046 62.4098 75.1821 62.638C67.6757 62.856 67.7391 72.6944 67.208 77.5874C65.2609 71.4142 63.2612 64.2024 56.7426 64.6125C47.3211 65.2053 51.9185 88.4977 45.3681 97.1232C42.8989 88.3824 38.419 80.7758 32.1076 83.0898C22.7557 86.5186 26.216 103.766 28.617 109.511C32.9451 119.868 34.659 122.847 32.7273 126.693L25.6963 140.692C23.7612 144.295 42.1181 164.041 64.8093 158.897Z" fill="#FB5C1C" fill-opacity="0.7"/>
<path d="M84.0474 79.6624C83.9229 79.6764 83.8023 79.7148 83.6927 79.7754C83.583 79.8361 83.4864 79.9178 83.4083 80.0158C83.3303 80.1138 83.2724 80.2263 83.2378 80.3467C83.2033 80.4671 83.1929 80.5932 83.2071 80.7177C83.2071 80.7177 84.722 94.279 78.082 108.198C77.973 108.426 77.959 108.687 78.0431 108.926C78.1272 109.164 78.3025 109.359 78.5305 109.468C78.6436 109.522 78.7662 109.553 78.8913 109.56C79.0164 109.566 79.1415 109.548 79.2595 109.506C79.3776 109.464 79.4862 109.399 79.5791 109.315C79.6721 109.231 79.7476 109.13 79.8013 109.017C86.6971 94.5619 85.0999 80.5024 85.0999 80.5024C85.0716 80.2516 84.9448 80.0222 84.7475 79.8647C84.5501 79.7072 84.2983 79.6344 84.0474 79.6624Z" fill="#593C27"/>
<path d="M67.1258 76.6369C66.874 76.6588 66.6412 76.7797 66.4786 76.9731C66.316 77.1665 66.2369 77.4166 66.2586 77.6683C66.2586 77.6683 67.3277 90.1792 61.7375 104.042C61.6906 104.158 61.667 104.282 61.668 104.407C61.669 104.533 61.6947 104.656 61.7436 104.771C61.7925 104.887 61.8636 104.991 61.9528 105.079C62.0421 105.167 62.1477 105.236 62.2638 105.283C62.3798 105.33 62.504 105.353 62.6291 105.352C62.7543 105.351 62.878 105.326 62.9933 105.277C63.1085 105.228 63.213 105.157 63.3007 105.068C63.3885 104.978 63.4578 104.873 63.5047 104.757C69.2755 90.4459 68.1574 77.5069 68.1574 77.5069C68.147 77.382 68.112 77.2604 68.0545 77.149C67.9969 77.0376 67.918 76.9387 67.8222 76.8579C67.7263 76.7771 67.6155 76.716 67.496 76.6781C67.3765 76.6401 67.2507 76.6262 67.1258 76.6369Z" fill="#593C27"/>
<path d="M45.1361 96.1976C45.0145 96.2279 44.9001 96.2819 44.7993 96.3565C44.6986 96.4311 44.6136 96.5248 44.5492 96.6322C44.4848 96.7397 44.4422 96.8588 44.4238 96.9828C44.4055 97.1067 44.4118 97.2331 44.4424 97.3546C44.4424 97.3546 45.1994 100.775 44.6397 102.799C44.606 102.919 44.5965 103.046 44.6118 103.17C44.6271 103.295 44.6669 103.415 44.7289 103.525C44.7908 103.634 44.8738 103.73 44.9729 103.807C45.072 103.884 45.1854 103.94 45.3065 103.973C45.4273 104.007 45.5534 104.016 45.6777 104C45.8019 103.985 45.9219 103.945 46.0308 103.883C46.1397 103.821 46.2352 103.738 46.3121 103.639C46.3889 103.541 46.4455 103.428 46.4787 103.307C47.2738 100.433 46.2933 96.8912 46.2933 96.8912C46.263 96.7696 46.209 96.6552 46.1344 96.5545C46.0598 96.4538 45.9661 96.3688 45.8586 96.3044C45.7511 96.24 45.6319 96.1974 45.508 96.1791C45.384 96.1607 45.2576 96.167 45.1361 96.1976Z" fill="#593C27"/>
<path d="M34.3926 81.7221C33.5421 81.7178 32.6645 81.8699 31.7792 82.1945C29.1809 83.1471 27.4358 85.112 26.4059 87.477C25.376 89.8421 25.0025 92.6175 25.0005 95.4322C24.9965 101.062 26.468 106.842 27.7365 109.878C27.8341 110.111 28.0202 110.296 28.2541 110.391C28.4879 110.487 28.7502 110.486 28.9834 110.389C29.0991 110.341 29.2042 110.271 29.2927 110.182C29.3812 110.093 29.4513 109.988 29.4991 109.872C29.5468 109.756 29.5713 109.632 29.5711 109.507C29.5708 109.382 29.5459 109.258 29.4977 109.142C28.3652 106.432 26.9045 100.72 26.9082 95.4322C26.9101 92.7884 27.2757 90.249 28.1521 88.2364C29.0286 86.2237 30.3594 84.747 32.437 83.9852C33.8222 83.4774 35.0036 83.5186 36.1478 83.9643C37.2921 84.41 38.4061 85.3003 39.443 86.5652C41.5169 89.095 43.2383 93.0865 44.4515 97.3814C44.5203 97.6243 44.6827 97.83 44.903 97.9533C45.1233 98.0766 45.3836 98.1075 45.6267 98.0391C45.8696 97.9703 46.0754 97.808 46.1987 97.5877C46.322 97.3674 46.3529 97.1072 46.2845 96.8642C45.0286 92.4183 43.2783 88.2376 40.9172 85.3574C39.7366 83.9173 38.3895 82.7914 36.8416 82.1885C36.0676 81.8871 35.2431 81.7264 34.3926 81.7221Z" fill="#593C27"/>
<path d="M102.822 40C102.443 40.0001 102.08 40.1506 101.812 40.4186C101.544 40.6866 101.393 41.05 101.393 41.429V54.0838C101.393 54.4627 101.544 54.8262 101.812 55.0942C102.08 55.3621 102.443 55.5127 102.822 55.5128C103.201 55.5127 103.565 55.3621 103.833 55.0942C104.101 54.8262 104.252 54.4627 104.252 54.0838V41.429C104.252 41.05 104.101 40.6866 103.833 40.4186C103.565 40.1506 103.201 40.0001 102.822 40Z" fill="#FB5C1C" fill-opacity="0.7"/>
<path d="M127.082 46.5382C126.705 46.5042 126.329 46.6214 126.038 46.864L116.222 55.0644C116.077 55.1848 115.958 55.3325 115.871 55.499C115.784 55.6655 115.731 55.8475 115.714 56.0346C115.697 56.2218 115.718 56.4104 115.774 56.5896C115.83 56.7689 115.922 56.9353 116.042 57.0793C116.286 57.3697 116.634 57.5517 117.011 57.5853C117.389 57.6189 117.764 57.5015 118.055 57.2587L127.871 49.0583C128.162 48.8152 128.344 48.4667 128.377 48.0895C128.411 47.7122 128.294 47.3371 128.051 47.0464C127.808 46.7552 127.46 46.5724 127.082 46.5382Z" fill="#FB5C1C" fill-opacity="0.7"/>
<path d="M80.9165 47.0942C80.6258 46.8514 80.2505 46.7339 79.8732 46.7676C79.4959 46.8012 79.1473 46.9832 78.9041 47.2735C78.7834 47.4175 78.6923 47.5839 78.636 47.7632C78.5797 47.9425 78.5593 48.1311 78.5759 48.3182C78.5926 48.5054 78.646 48.6874 78.7331 48.8539C78.8202 49.0204 78.9393 49.1681 79.0835 49.2885L88.9003 57.4858C89.191 57.7286 89.5662 57.8461 89.9436 57.8125C90.3209 57.7788 90.6694 57.5968 90.9126 57.3065C91.1555 57.0158 91.273 56.6406 91.2393 56.2634C91.2057 55.8861 91.0237 55.5377 90.7332 55.2945L80.9165 47.0942Z" fill="#FB5C1C" fill-opacity="0.7"/>
</g>
<defs>
<clipPath id="clip0_43_16">
<rect width="150" height="120.845" fill="white" transform="translate(25 40)"/>
</clipPath>
</defs>
</svg>
