<svg width="200" height="200" viewBox="0 0 200 200" fill="none" xmlns="http://www.w3.org/2000/svg">
<path d="M74.6534 39.177L84.1714 54.7908L81.0053 63.6076L61.5415 59.0789L65.1618 38.9303L74.6534 39.177Z" fill="white"/>
<path d="M56.2417 145.901C68.5867 177.321 110.091 179.542 122.766 170.073C155.162 134.04 157.616 108.516 158.994 95.9379C160.222 84.7249 156.753 72.1583 146.202 70.9245C142.438 61.0092 133.247 51.2925 119.988 53.5781C113.454 37.2976 85.5512 24.5099 78.8679 35.2697C72.7084 45.1861 85.4751 47.2073 91.2111 51.8987C94.5062 54.5938 106.843 70.0177 89.3928 82.097C78.3865 89.7156 66.2467 81.0884 63.8574 74.2754C60.979 66.0675 64.6351 58.298 58.7409 56.3203C39.5248 49.8728 40.1994 74.3809 42.2954 84.9446C44.4565 95.8366 62.3519 107.689 60.1122 121.675C58.9493 129.262 54.7104 139.982 56.2417 145.901Z" fill="#FB5C1C" fill-opacity="0.7"/>
<path d="M119.318 52.5172C119.178 52.6055 119.057 52.7204 118.962 52.8554C118.867 52.9903 118.8 53.1427 118.763 53.3038C118.727 53.4649 118.723 53.6316 118.751 53.7942C118.78 53.9569 118.84 54.1123 118.928 54.2517C118.928 54.2517 120.047 55.9718 120.802 60.0767C121.557 64.1816 121.87 70.5584 119.976 79.5086C119.909 79.8345 119.974 80.1739 120.156 80.4521C120.339 80.7303 120.625 80.9247 120.95 80.9927C121.275 81.0602 121.613 80.9967 121.891 80.816C122.169 80.6353 122.364 80.3521 122.434 80.028C124.389 70.7864 124.095 64.0625 123.278 59.6222C122.462 55.1819 121.052 52.9068 121.052 52.9068C120.964 52.7673 120.849 52.6465 120.714 52.5515C120.579 52.4564 120.427 52.3888 120.266 52.3526C120.105 52.3164 119.938 52.3125 119.775 52.3407C119.613 52.369 119.457 52.4289 119.318 52.5172Z" fill="#593C27"/>
<path d="M145.818 69.7323C145.502 69.8352 145.24 70.0589 145.089 70.3543C144.938 70.6497 144.91 70.9929 145.011 71.3091C145.011 71.3091 148.176 81.028 143.146 92.2343C143.01 92.5382 143 92.8837 143.118 93.195C143.236 93.5064 143.473 93.758 143.777 93.8946C144.081 94.031 144.426 94.0411 144.738 93.9229C145.049 93.8046 145.301 93.5676 145.437 93.2639C150.854 81.1955 147.394 70.5392 147.394 70.5392C147.291 70.2237 147.068 69.9618 146.772 69.8107C146.477 69.6595 146.134 69.6313 145.818 69.7323Z" fill="#593C27"/>
<path d="M74.2299 67.7657C74.0679 67.734 73.9013 67.7344 73.7395 67.7671C73.5777 67.7999 73.424 67.8641 73.287 67.9563C73.1501 68.0484 73.0325 68.1667 72.9412 68.3042C72.85 68.4418 72.7868 68.5961 72.7552 68.7582L71.7163 74.0915C71.6846 74.2535 71.6851 74.4201 71.7178 74.5819C71.7505 74.7438 71.8149 74.8976 71.907 75.0345C71.9992 75.1715 72.1173 75.289 72.2549 75.3802C72.3925 75.4714 72.5468 75.5347 72.7088 75.5663C72.8708 75.598 73.0374 75.5975 73.1992 75.5648C73.361 75.5321 73.515 75.4679 73.652 75.3757C73.7889 75.2835 73.9062 75.1652 73.9975 75.0276C74.0887 74.89 74.152 74.7359 74.1836 74.5738L75.2224 69.2405C75.2541 69.0785 75.2537 68.9119 75.221 68.75C75.1883 68.5882 75.1239 68.4344 75.0317 68.2974C74.9395 68.1605 74.8214 68.043 74.6839 67.9518C74.5463 67.8605 74.392 67.7973 74.2299 67.7657Z" fill="#593C27"/>
<path d="M81.6781 67.5155C81.5171 67.5541 81.3653 67.6242 81.2314 67.7216C81.0976 67.8191 80.9843 67.942 80.8981 68.0834C80.8119 68.2247 80.7544 68.3816 80.7291 68.5453C80.7038 68.7089 80.7111 68.8759 80.7506 69.0367L82.0398 74.3051C82.0784 74.4661 82.1485 74.6179 82.2459 74.7518C82.3434 74.8856 82.4663 74.9989 82.6077 75.0851C82.749 75.1713 82.9061 75.2288 83.0697 75.2541C83.2333 75.2794 83.4002 75.2721 83.561 75.2327C83.722 75.1941 83.8738 75.124 84.0077 75.0266C84.1415 74.9291 84.2548 74.8062 84.341 74.6648C84.4272 74.5235 84.4847 74.3666 84.51 74.2029C84.5353 74.0393 84.528 73.8723 84.4885 73.7115L83.1993 68.4431C83.1607 68.2821 83.0906 68.1303 82.9932 67.9964C82.8957 67.8626 82.7728 67.7493 82.6314 67.6631C82.4901 67.5769 82.3333 67.5196 82.1697 67.4942C82.0061 67.4689 81.8389 67.4761 81.6781 67.5155Z" fill="#593C27"/>
<path d="M88.3191 64.0187C88.1573 64.0516 88.0035 64.1159 87.8666 64.2083C87.7297 64.3006 87.6125 64.419 87.5214 64.5567C87.4294 64.6937 87.3652 64.8475 87.3327 65.0093C87.3002 65.1711 87.2999 65.3378 87.3318 65.4997C87.3637 65.6616 87.4271 65.8156 87.5185 65.953C87.6099 66.0904 87.7278 66.2085 87.8649 66.3004L92.3727 69.3242C92.5097 69.4162 92.6634 69.4802 92.8252 69.5128C92.987 69.5453 93.1537 69.5457 93.3156 69.5138C93.4775 69.4819 93.6315 69.4184 93.7689 69.327C93.9063 69.2355 94.0245 69.1179 94.1165 68.9809C94.2085 68.8438 94.2724 68.6901 94.3049 68.5283C94.3374 68.3665 94.3379 68.1998 94.306 68.0378C94.2742 67.8759 94.2105 67.7219 94.1191 67.5845C94.0276 67.4471 93.9101 67.329 93.773 67.2371L89.2652 64.2133C89.1281 64.1201 88.9739 64.0549 88.8115 64.0214C88.6492 63.988 88.4818 63.9871 88.3191 64.0187Z" fill="#593C27"/>
<path d="M51.6627 35.5805C51.3397 35.6559 51.0597 35.856 50.8836 36.137C50.7089 36.419 50.6529 36.7586 50.7276 37.0818C50.8024 37.405 51.0017 37.6856 51.2824 37.8623L55.8737 40.7469C56.0132 40.8353 56.1688 40.8953 56.3314 40.9236C56.4941 40.9518 56.6608 40.9479 56.8219 40.9117C56.9829 40.8755 57.1353 40.8079 57.2703 40.7129C57.4052 40.6178 57.52 40.497 57.6082 40.3575C57.6962 40.2175 57.7558 40.0615 57.7833 39.8985C57.8109 39.7355 57.8059 39.5686 57.7688 39.4075C57.7318 39.2464 57.6634 39.0941 57.5674 38.9595C57.4714 38.8249 57.3497 38.7105 57.2094 38.623L52.6088 35.7384C52.3267 35.5628 51.9865 35.5059 51.6627 35.5805Z" fill="#593C27"/>
<path d="M58.5455 28.4381C58.4069 28.5286 58.2877 28.6456 58.1944 28.7823C58.1012 28.919 58.0359 29.0727 58.0023 29.2348C57.9687 29.3968 57.9674 29.564 57.9985 29.7265C58.0296 29.889 58.0926 30.0437 58.1837 30.1819L61.1518 34.7268C61.3345 35.004 61.6193 35.1977 61.9443 35.2655C62.2693 35.3333 62.6081 35.2698 62.8863 35.0887C63.165 34.9075 63.3606 34.6232 63.4301 34.2981C63.4996 33.973 63.4373 33.6336 63.2571 33.3542L60.2889 28.8093C60.1992 28.67 60.0827 28.5499 59.9463 28.4558C59.8099 28.3617 59.6562 28.2955 59.4942 28.261C59.3321 28.2265 59.1649 28.2245 59.002 28.2549C58.8391 28.2854 58.6841 28.3474 58.5455 28.4381Z" fill="#593C27"/>
<path d="M70.3247 25.0159C69.9978 24.9634 69.6635 25.0422 69.3943 25.235C69.1251 25.4278 68.9427 25.719 68.887 26.0454L68.0059 31.4066C67.9786 31.5699 67.984 31.7368 68.0215 31.898C68.059 32.0593 68.1282 32.2116 68.2247 32.346C68.3212 32.4805 68.4434 32.5944 68.5841 32.6815C68.7249 32.7686 68.8813 32.8271 69.0447 32.8536C69.208 32.8808 69.3751 32.8754 69.5363 32.8379C69.6975 32.8004 69.8497 32.7314 69.9841 32.6349C70.1186 32.5383 70.2327 32.4162 70.3198 32.2754C70.4069 32.1347 70.4652 31.9781 70.4917 31.8147L71.3635 26.4535C71.4158 26.1252 71.3359 25.7895 71.1412 25.5201C70.9465 25.2506 70.6528 25.0693 70.3247 25.0159Z" fill="#593C27"/>
<path d="M87.1695 30.043C83.244 30.1071 79.7378 31.4888 77.8013 34.6064C76.1487 37.2671 75.6573 39.6487 76.1782 41.7021C76.699 43.7555 78.142 45.2974 79.8326 46.5531C83.2141 49.0646 87.8331 50.7572 90.4159 52.8697C91.749 53.96 95.6371 58.4454 96.8622 63.759C98.0873 69.0725 97.0869 75.2484 88.6814 81.0668C83.5384 84.6268 78.2945 84.369 73.8964 82.4488C69.4984 80.5287 66.0772 76.7955 65.0477 73.8598C63.7044 70.0295 63.8729 66.2118 63.6842 62.8871C63.5897 61.2247 63.4097 59.673 62.7567 58.2772C62.1035 56.8815 60.8852 55.7187 59.1393 55.1329C54.1098 53.4453 50.1008 53.7288 47.1277 55.5037C44.1546 57.2788 42.3613 60.3941 41.3213 63.8979C39.2412 70.9056 39.9826 79.7464 41.0616 85.1849C41.0932 85.347 41.1564 85.5011 41.2477 85.6387C41.3389 85.7763 41.4562 85.8947 41.5932 85.9868C41.7301 86.079 41.8841 86.1432 42.0459 86.176C42.2077 86.2087 42.3744 86.2091 42.5364 86.1774C42.6984 86.1458 42.8524 86.0825 42.99 85.9913C43.1276 85.9001 43.2459 85.7826 43.3381 85.6457C43.4303 85.5087 43.4947 85.355 43.5274 85.1932C43.5601 85.0314 43.5605 84.8646 43.5288 84.7026C42.5119 79.5775 41.87 70.8875 43.7329 64.6121C44.6643 61.4744 46.1775 59.0019 48.4169 57.6649C50.6564 56.3279 53.7631 55.971 58.3416 57.5072C59.5428 57.9104 60.0753 58.4607 60.4842 59.3345C60.8931 60.2082 61.0917 61.4821 61.1799 63.0353C61.3561 66.1417 61.1371 70.317 62.6732 74.6945C64.033 78.5718 67.8739 82.557 72.8947 84.749C77.9154 86.941 84.2463 87.1846 90.1098 83.1259C99.1547 76.865 100.716 69.285 99.3109 63.193C97.9063 57.1011 93.9732 52.5265 92.0112 50.9218C88.858 48.3428 84.2221 46.682 81.326 44.531C79.8779 43.4554 78.9281 42.3417 78.6083 41.0805C78.2887 39.8194 78.5076 38.2304 79.9347 35.9328C81.3399 33.6705 83.8257 32.6119 87.2158 32.5564C90.6061 32.5009 94.7785 33.5445 98.9678 35.4318C107.346 39.2065 115.748 46.3755 118.826 54.0475C118.951 54.3559 119.193 54.6025 119.499 54.7329C119.805 54.8633 120.15 54.8669 120.459 54.7431C120.767 54.6185 121.014 54.3768 121.144 54.0708C121.275 53.7648 121.278 53.4195 121.154 53.1107C117.7 44.5022 108.874 37.1402 99.9973 33.1408C95.5587 31.1411 91.0949 29.9787 87.1695 30.043Z" fill="#593C27"/>
<path d="M65.1961 37.676C65.1866 37.6759 65.1769 37.6759 65.1674 37.676C65.0899 37.6768 65.0127 37.6848 64.9367 37.6998C64.9078 37.7051 64.8793 37.7115 64.8509 37.7188C64.7941 37.7337 64.7381 37.7526 64.6839 37.7753C64.6472 37.7899 64.6115 37.8062 64.5764 37.8242C64.5385 37.8452 64.5015 37.8682 64.466 37.893C64.4233 37.919 64.3823 37.9476 64.3431 37.9785C64.3439 37.9785 64.3422 37.9785 64.3431 37.9785C64.335 37.9863 64.3248 37.9943 64.317 38.0023C64.2565 38.0565 64.2015 38.1164 64.1526 38.1813C64.1535 38.1813 64.1518 38.1813 64.1526 38.1813C64.1462 38.1907 64.1371 38.2002 64.1309 38.2098C64.0274 38.3559 63.9564 38.5224 63.9225 38.6982L60.3051 58.8439C60.305 58.8502 60.305 58.8567 60.3051 58.863C60.2969 58.9159 60.2922 58.9692 60.2909 59.0226C60.2894 59.0455 60.2885 59.0685 60.2883 59.0914C60.288 59.1057 60.288 59.1199 60.2883 59.1342C60.2882 59.1421 60.2882 59.1499 60.2883 59.1578C60.2917 59.1906 60.2967 59.2232 60.3028 59.2556C60.3079 59.2869 60.3141 59.3181 60.3216 59.3488C60.3231 59.3583 60.3248 59.3678 60.3265 59.3772C60.3386 59.4189 60.3528 59.46 60.3691 59.5003C60.378 59.5227 60.3874 59.5449 60.3975 59.5668C60.4258 59.6317 60.4597 59.6942 60.4984 59.7535C60.5015 59.7582 60.5045 59.7629 60.5077 59.7677C60.5478 59.827 60.5931 59.8827 60.6428 59.9343C60.6536 59.9456 60.6645 59.9567 60.6758 59.9675C60.7054 59.9968 60.7368 60.0246 60.7691 60.0507C60.7723 60.0507 60.7752 60.0507 60.7784 60.0507C60.7945 60.0622 60.8108 60.0732 60.8274 60.0839C60.8352 60.0919 60.8431 60.0999 60.8512 60.1077C60.8575 60.1125 60.8639 60.1172 60.8703 60.1219C60.9324 60.1628 60.9979 60.1981 61.0662 60.2274C61.0678 60.2274 61.0696 60.2274 61.0712 60.2274C61.0703 60.2274 61.072 60.2274 61.0712 60.2274C61.1317 60.2528 61.1964 60.2735 61.2602 60.2891C61.2593 60.2891 61.261 60.2891 61.2602 60.2891L61.3054 60.3033C61.3346 60.3107 61.3641 60.317 61.3938 60.3223L80.7298 64.828C80.7688 64.8346 80.808 64.8394 80.8474 64.8423C80.8695 64.8477 80.8918 64.8524 80.9141 64.8565C80.986 64.8627 81.0581 64.8627 81.13 64.8565C81.1573 64.8527 81.1843 64.848 81.2112 64.8423C81.2752 64.833 81.3384 64.8187 81.4002 64.7996C81.4113 64.795 81.4225 64.7903 81.4335 64.7854C81.4927 64.7642 81.5501 64.7386 81.6054 64.7088C81.6166 64.7027 81.6278 64.6964 81.6387 64.6899C81.7095 64.649 81.776 64.6012 81.8376 64.5474C81.8561 64.5308 81.8742 64.5137 81.8918 64.4961C81.9491 64.4399 82.0009 64.3784 82.0466 64.3123C82.0547 64.3014 82.0626 64.2902 82.0703 64.279C82.1243 64.1944 82.168 64.1038 82.2005 64.0088L85.359 55.2109C85.4218 55.0348 85.4442 54.847 85.4251 54.661C85.4061 54.475 85.3458 54.2956 85.2486 54.1359L82.7727 50.0719C82.714 49.7833 82.5557 49.5246 82.3257 49.3407C82.3265 49.3407 82.3249 49.3407 82.3257 49.3407L79.3831 44.5134C79.3369 44.4057 79.2758 44.305 79.2016 44.2142L75.7315 38.5182C75.6221 38.339 75.4695 38.1901 75.2877 38.085C75.106 37.98 74.9011 37.9223 74.6912 37.9169L65.2697 37.6766C65.2666 37.6766 65.2633 37.6766 65.2602 37.6766C65.2507 37.6765 65.2413 37.6765 65.2318 37.6766L65.1961 37.676ZM67.9077 40.2601L73.9326 40.4121L76.0112 43.8208L70.8332 43.9875C69.7053 42.4995 68.7041 41.2383 67.9077 40.2601ZM65.9176 41.8258C66.7269 42.831 67.7593 44.1416 68.9239 45.6911L63.8489 53.3356L65.9176 41.8258ZM77.5155 46.29L80.09 50.5135L78.2103 54.9185C76.4585 51.9029 74.4899 48.9841 72.6564 46.4471L77.5155 46.29ZM70.5115 47.8433C72.4484 50.5237 74.5402 53.6267 76.3402 56.7616L64.0057 57.6401L70.5115 47.8433ZM81.6976 53.1491L82.7822 54.9284L80.9245 60.1114C80.5603 59.3165 80.1694 58.5179 79.7538 57.7187L81.6976 53.1491ZM77.6703 59.1912C78.1305 60.0801 78.5559 60.9631 78.939 61.8317L69.9448 59.7433L77.6703 59.1912Z" fill="#593C27"/>
</svg>
