<svg width="200" height="200" viewBox="0 0 200 200" fill="none" xmlns="http://www.w3.org/2000/svg">
<path d="M94.6074 57.0637C92.9973 57.0864 91.4826 57.3579 90.3357 57.7726C79.6402 61.6381 64.0952 70.6367 62.0288 84.2174C59.3931 101.539 62.1367 118.263 67.6284 134.224C68.054 137.696 64.7067 148.091 62.8457 151.953C63.0033 152.169 71.4685 163.665 93.2344 170.025C115.207 176.445 131.185 174.815 131.185 174.815L132.931 172.32C143.814 156.016 153.415 129.933 159.589 108.951C162.272 99.8344 155.514 86.0932 140.831 88.6591C138.924 78.9598 130.169 73.4648 117.517 78.403C116.879 69.8387 109.788 64.7974 104.286 66.0123C105.123 59.099 99.438 56.9878 94.6074 57.0637Z" fill="#F6865A"/>
<path d="M94.5875 55.7801C92.847 55.8073 91.2195 56.0877 89.8999 56.5643C84.4398 58.5377 77.7757 61.8003 72.1411 66.3545C66.5065 70.9087 61.8599 76.8023 60.7611 84.0237C60.7101 84.3599 60.7947 84.7026 60.9962 84.9765C61.1977 85.2504 61.4997 85.4328 61.8359 85.4841C62.1721 85.5351 62.515 85.4508 62.7889 85.2493C63.0628 85.0478 63.2455 84.7458 63.2968 84.4096C64.2643 78.0504 68.4236 72.6554 73.752 68.3487C79.0803 64.0421 85.5364 60.8715 90.7717 58.9793C91.7461 58.6269 93.1478 58.3686 94.6277 58.3454C96.8482 58.3136 99.2324 58.8109 100.824 59.9562C102.224 60.9647 103.147 62.3735 103.091 64.8088C102.088 64.9 100.544 65.088 98.902 65.4752C97.5092 65.8035 96.0382 66.2717 94.7455 66.9909C93.4528 67.7101 92.2798 68.7173 91.7539 70.1824C90.9221 72.4997 89.8444 77.1883 88.3265 81.8842C87.1206 85.6149 85.5621 89.3044 83.9918 91.4843C83.7928 91.016 83.5804 90.5887 83.3631 90.1991C82.0256 87.799 80.334 86.7895 80.334 86.7895C80.1873 86.706 80.0255 86.6521 79.858 86.6312C79.6905 86.6103 79.5206 86.6229 79.3579 86.6678C79.1952 86.7127 79.043 86.789 78.91 86.8929C78.7769 86.9967 78.6657 87.1257 78.5826 87.2726C78.499 87.4191 78.4451 87.581 78.424 87.7483C78.403 87.9157 78.4151 88.0855 78.4598 88.2481C78.5045 88.4108 78.5807 88.563 78.6843 88.6961C78.7879 88.8292 78.9168 88.9405 79.0635 89.0238C79.0635 89.0238 80.05 89.5328 81.1179 91.4491C82.1858 93.3652 83.212 96.6243 82.6814 101.996C82.6652 102.164 82.6823 102.333 82.7316 102.494C82.7809 102.655 82.8613 102.805 82.9686 102.935C83.0759 103.066 83.2078 103.173 83.3567 103.252C83.5056 103.331 83.6687 103.38 83.8365 103.396C84.1743 103.43 84.5116 103.328 84.7746 103.113C85.0376 102.899 85.2047 102.589 85.2395 102.251C85.5542 99.068 85.358 96.4725 84.8988 94.38C87.5628 91.8171 89.2947 87.2325 90.7692 82.6707C92.3299 77.8424 93.4821 72.9654 94.1692 71.0515C94.4026 70.401 95.0229 69.7765 95.9957 69.2352C96.9685 68.6941 98.2426 68.2695 99.4908 67.9753C101.987 67.3867 104.339 67.2937 104.339 67.2937C104.418 67.2904 104.497 67.2799 104.575 67.262C109.108 66.2714 115.612 70.5832 116.23 78.4352C116.171 79.0958 115.634 84.9208 114.604 88.2204C114.553 88.3813 114.535 88.5503 114.55 88.7183C114.565 88.8862 114.613 89.0496 114.692 89.1989C114.77 89.3483 114.876 89.4809 115.006 89.589C115.135 89.697 115.285 89.7785 115.446 89.8288C115.607 89.8796 115.776 89.8982 115.944 89.8834C116.113 89.8686 116.277 89.8205 116.426 89.7423C116.576 89.6641 116.709 89.557 116.817 89.4274C116.925 89.2977 117.007 89.1481 117.057 88.9869C118.333 84.9007 118.798 78.5054 118.798 78.5054C118.807 78.4 118.802 78.2939 118.784 78.1896C118.099 69.7549 111.609 64.5307 105.561 64.8268C105.562 61.7023 104.289 59.2919 102.321 57.8749C100.071 56.2553 97.1975 55.739 94.5875 55.7801ZM140.894 87.3807C140.826 87.3754 140.758 87.3754 140.691 87.3807C140.353 87.4179 140.045 87.5871 139.832 87.8514C139.619 88.1158 139.52 88.4535 139.556 88.7909C139.556 88.7909 140.221 94.9058 138.551 102.134C138.476 102.464 138.534 102.81 138.714 103.098C138.893 103.385 139.178 103.589 139.508 103.667C139.672 103.706 139.842 103.712 140.009 103.684C140.175 103.657 140.335 103.597 140.478 103.508C140.622 103.42 140.746 103.303 140.844 103.166C140.943 103.029 141.013 102.874 141.052 102.71C142.827 95.026 142.104 88.5178 142.104 88.5178C142.071 88.2147 141.931 87.9333 141.709 87.7239C141.487 87.5146 141.198 87.3912 140.894 87.3757L140.894 87.3807Z" fill="#593C27"/>
<path fill-rule="evenodd" clip-rule="evenodd" d="M79.3946 57.6491L80.3236 56.8323C80.4545 56.8492 80.3993 57.1902 80.0971 58.0035L79.6444 59.2218L97.5768 72.3984C107.439 79.6455 115.689 85.7369 115.91 85.9351C116.59 86.5464 117.072 87.5976 117.159 88.6575C117.31 90.4772 117.236 90.5899 112.86 95.712C108.559 100.742 108.191 101.07 106.618 101.289C106.153 101.353 105.572 101.369 105.326 101.33V101.323C104.238 101.121 103.561 100.666 101.882 99.0094C100.943 98.0819 93.7396 90.8604 85.8752 82.9617L71.5762 68.6003L70.4372 69.231C70.3736 69.2662 70.3122 69.3002 70.2528 69.333C69.1558 69.9403 68.772 70.1528 68.7362 70.105C68.717 70.0792 68.7985 69.9781 68.924 69.8225C69.4127 69.2166 70.5673 67.7851 69.0254 66.7665L73.5971 62.7467C75.2656 62.3031 77.3631 59.9361 78.7827 58.3342C79.0046 58.0837 79.21 57.8519 79.3946 57.6491Z" fill="#593C27"/>
<path d="M87.8384 87.6214C88.4584 86.7193 92.289 73.3202 92.289 73.3202L94.9385 69.1161L100.687 70.2352L104.555 73.6604L107.622 75.2296L112.804 78.3521L119.377 87.902L120.272 97.4529L107.326 107.813L87.8384 87.6214Z" fill="#F6865A"/>
<path d="M95.344 66.8058C93.8993 67.4518 92.8745 68.6982 92.0707 70.1855C91.2669 71.6729 90.6507 73.4468 90.0659 75.4015C88.8964 79.3109 87.8511 83.9435 86.083 88.1575C85.9603 88.4505 85.9586 88.7803 86.0783 89.0745C86.198 89.3687 86.4293 89.6034 86.7217 89.7276C86.8673 89.7897 87.0236 89.8226 87.1818 89.8241C87.3401 89.8256 87.4972 89.7958 87.644 89.7365C87.7907 89.6771 87.924 89.5892 88.0368 89.4781C88.1495 89.367 88.2392 89.2348 88.3007 89.0889C90.1796 84.611 91.2321 79.8749 92.3634 76.0934C92.9291 74.2026 93.5198 72.5549 94.1819 71.3298C94.844 70.1047 95.5484 69.3417 96.3198 68.9968C96.4643 68.9329 96.5949 68.8413 96.704 68.7268C96.813 68.6124 96.8985 68.4776 96.9554 68.3301C97.0123 68.1826 97.0393 68.0252 97.0352 67.8672C97.0312 67.7092 96.9961 67.5534 96.9318 67.409C96.8011 67.1185 96.5604 66.892 96.2626 66.7789C95.9649 66.6658 95.6346 66.6754 95.344 66.8058Z" fill="#593C27"/>
<path d="M117.051 82.4874C116.709 85.9404 115.988 88.2585 115.435 91.1732Z" fill="#F6865A"/>
<path d="M117.166 81.2918C116.85 81.2607 116.534 81.3562 116.288 81.5573C116.042 81.7585 115.886 82.049 115.854 82.3651C115.523 85.7057 114.824 87.9642 114.257 90.9519C114.198 91.2648 114.266 91.5882 114.446 91.8509C114.625 92.1137 114.902 92.2944 115.215 92.3535C115.528 92.412 115.851 92.344 116.114 92.1644C116.377 91.9848 116.557 91.7082 116.616 91.3955C117.156 88.5539 117.896 86.1699 118.249 82.6046C118.264 82.4473 118.248 82.2887 118.202 82.1375C118.156 81.9864 118.081 81.8456 117.98 81.7237C117.879 81.6017 117.756 81.5009 117.616 81.4268C117.476 81.3527 117.324 81.3067 117.166 81.2918Z" fill="#593C27"/>
<circle cx="62.4714" cy="47.4714" r="19.5874" stroke="#593C27" stroke-width="5.76807"/>
</svg>
