<svg width="216" height="216" viewBox="0 0 216 216" fill="none" xmlns="http://www.w3.org/2000/svg">
<path d="M0 47.0204C0 21.0518 21.0518 0 47.0204 0H168.98C194.948 0 216 21.0518 216 47.0204V168.98C216 194.948 194.948 216 168.98 216H47.0204C21.0518 216 0 194.948 0 168.98V47.0204Z" fill="#FB5C1C"/>
<path fill-rule="evenodd" clip-rule="evenodd" d="M91.0238 47.5137C78.9164 50.3046 66.6525 62.6029 57.2183 81.4147C53.4558 88.9155 53.236 89.4287 50.2911 97.5877C43.5457 116.276 40.0815 135.789 40.0308 155.384L40 167.159L46.5021 167.33C51.3871 167.459 53.0651 167.309 53.2487 166.726C53.3827 166.3 53.7788 160.245 54.1279 153.271C55.4654 126.569 61.1927 104.197 71.7507 84.4338C79.1042 70.6683 87.9702 62.2581 96.0936 61.3427C100.861 60.8053 104.484 62.7351 107.135 67.2246C108.315 69.2209 110.95 76.7126 110.95 78.0664C110.95 78.4106 109.2 80.6001 107.06 82.9315C77.3615 115.293 63.954 153.766 78.5656 164.696C82.732 167.812 84.404 168.327 90.42 168.347C95.552 168.365 96.4933 168.189 99.3543 166.682C107.408 162.439 115.394 150.531 120.092 135.76C124.703 121.261 126.051 112.937 126.467 96.4024L126.804 83.01L130.607 79.9244C140.059 72.2557 146.502 69.0361 152.395 69.0361C155.343 69.0361 155.959 69.2559 157.436 70.8373C159.492 73.0395 160.056 75.7084 159.295 79.64C157.953 86.5708 155.572 91.8821 146.045 109.191C136.028 127.391 132.38 135.543 130.237 144.517C128.757 150.714 128.754 154.553 130.228 158.432C131.933 162.918 134.057 165.344 137.945 167.246C149.422 172.861 162.917 164.989 171.651 147.586C174.718 141.475 175.752 138.364 174.893 137.834C173.963 137.259 162.9 134.611 162.7 134.915C162.612 135.048 161.734 136.922 160.748 139.081C155.923 149.642 151.862 154.78 148.34 154.78C145.928 154.78 143.557 152.405 143.557 149.99C143.557 146.802 146.54 139.059 151.248 130.023C168.889 96.1669 171.877 89.413 173.412 79.9244C174.293 74.4742 173.871 70.0862 171.997 65.2398C170.963 62.5642 165.589 57.6315 161.815 55.8937C158.888 54.5459 157.555 54.3062 153.219 54.3479C145.848 54.4197 139.424 56.9305 128.592 63.9724C125.84 65.7609 123.364 67.2246 123.088 67.2246C122.813 67.2246 122.118 65.9958 121.544 64.4935C118.814 57.3447 112.732 50.9187 106.482 48.5801C102.275 47.0065 95.3092 46.5258 91.0238 47.5137ZM111.939 105.338C111.407 113.462 109.609 122.098 106.614 130.929C100.143 150.002 92.6922 158.51 87.4177 152.847C83.9427 149.118 88.8736 133.282 98.0464 118.716C104.792 108.004 111.058 99.2277 111.961 99.2277C112.169 99.2277 112.159 101.978 111.939 105.338Z" fill="white"/>
</svg>
