<svg width="200" height="200" viewBox="0 0 200 200" fill="none" xmlns="http://www.w3.org/2000/svg">
<path d="M96.6479 59.8891L116.426 29.0385C122.688 22.1684 135.041 29.061 133.532 34.9845L117.245 65.3989C113.457 62.9416 104.505 58.8896 96.6479 59.8891Z" fill="#593C27"/>
<path d="M123.093 26.1721C120.682 26.1712 118.285 26.9979 116.426 29.0375L107.598 42.8101L107.658 42.8911C107.658 42.8911 120.516 40.0025 125.395 50.1032C125.395 50.1032 125.435 50.1033 125.435 50.1032L133.53 34.9838C134.592 30.8189 128.802 26.1743 123.093 26.1721Z" fill="#F6865A"/>
<path d="M162.395 140.328C165.052 121.81 167.585 107.423 157.414 85.224C155.335 80.1394 138.288 85.4964 135.738 81.2384C123.635 65.6654 101.376 54.1026 87.4137 62.7435C74.6357 60.763 56.1518 62.4155 43.9018 71.449C34.4318 78.4324 35.8993 94.1393 45.5156 103.108C36.6838 105.552 39.5501 123.275 45.8529 128.195C42.4583 135.109 39.1281 152.607 61.67 158.351C90.7977 165.773 134.883 160.509 162.395 140.328Z" fill="#F6865A"/>
<path d="M138.851 28.7744C138.736 28.8812 138.644 29.0098 138.58 29.1523C138.515 29.2948 138.48 29.4486 138.475 29.6049C138.47 29.7612 138.496 29.9167 138.551 30.063C138.607 30.2092 138.691 30.343 138.798 30.4567C142.296 34.2088 140.033 38.9294 140.033 38.9294C139.9 39.2142 139.885 39.5403 139.992 39.836C140.099 40.1317 140.319 40.373 140.603 40.5068C140.744 40.5742 140.898 40.6127 141.054 40.6205C141.211 40.6283 141.367 40.6052 141.515 40.5523C141.662 40.4993 141.797 40.4177 141.913 40.3122C142.029 40.2066 142.123 40.079 142.189 39.937C142.189 39.937 145.06 33.6923 140.533 28.8358C140.427 28.7209 140.299 28.6284 140.157 28.5631C140.015 28.4977 139.861 28.4612 139.705 28.4554C139.548 28.4497 139.392 28.4749 139.246 28.5296C139.099 28.5844 138.965 28.6676 138.851 28.7744Z" fill="#593C27"/>
<path d="M144.861 31.0966C144.736 31.1902 144.631 31.3074 144.551 31.4418C144.472 31.5763 144.419 31.725 144.397 31.8797C144.376 32.0343 144.384 32.192 144.423 32.3432C144.463 32.4945 144.531 32.6363 144.625 32.761C145.917 34.4829 144.914 37.5453 144.914 37.5453C144.858 37.6909 144.832 37.8459 144.836 38.0017C144.84 38.1576 144.875 38.3111 144.939 38.4535C145.002 38.5959 145.093 38.7244 145.206 38.8316C145.319 38.9389 145.452 39.0228 145.598 39.0786C145.743 39.1344 145.898 39.1608 146.054 39.1567C146.21 39.1525 146.364 39.118 146.506 39.0545C146.648 38.9911 146.777 38.9001 146.884 38.787C146.991 38.6739 147.075 38.5405 147.131 38.3949C147.131 38.3949 148.831 34.4035 146.527 31.3329C146.433 31.2078 146.315 31.1025 146.181 31.0229C146.047 30.9433 145.898 30.8913 145.743 30.8693C145.589 30.8473 145.431 30.856 145.28 30.895C145.128 30.9341 144.986 31.0025 144.861 31.0966Z" fill="#593C27"/>
<path d="M123.051 25.0006C122.625 25.0006 122.197 25.0276 121.773 25.0765C119.512 25.3403 117.317 26.3046 115.554 28.2387C115.508 28.2876 115.467 28.3403 115.431 28.3961L95.6466 59.2472C95.477 59.5122 95.4196 59.8338 95.487 60.1412C95.5544 60.4485 95.7412 60.7164 96.0062 60.8862C96.271 61.0551 96.592 61.1121 96.8988 61.0448C97.2055 60.9774 97.4729 60.7912 97.6427 60.527L108.253 43.984C109.129 43.8311 111.641 43.479 114.527 43.8868C114.971 43.9496 115.422 44.0307 115.873 44.1303L106.292 60.5086C106.134 60.7805 106.091 61.1038 106.172 61.4076C106.252 61.7113 106.45 61.971 106.721 62.1293C106.993 62.2869 107.316 62.3302 107.62 62.2498C107.924 62.1694 108.183 61.9717 108.341 61.7003L118.206 44.8446C120.465 45.7582 122.596 47.3562 124.078 50.1324L116.2 64.837C116.052 65.1138 116.02 65.438 116.11 65.7387C116.2 66.0393 116.406 66.292 116.683 66.4413C116.82 66.516 116.971 66.5627 117.127 66.579C117.282 66.5952 117.44 66.5805 117.59 66.5357C117.74 66.4909 117.879 66.417 118 66.318C118.122 66.219 118.222 66.097 118.296 65.9591L134.575 35.5483C134.621 35.4617 134.656 35.3699 134.679 35.2748C135.166 33.3651 134.518 31.439 133.323 29.8684C132.128 28.2977 130.38 27.0022 128.371 26.1268C126.739 25.4156 124.897 24.9932 123.051 25.0006ZM123.15 27.3516C124.596 27.365 126.061 27.7112 127.416 28.302C129.09 29.0313 130.536 30.1334 131.429 31.3064C132.31 32.4647 132.625 33.6033 132.375 34.6447L125.381 47.7035C122.621 43.6454 118.416 42.0348 114.86 41.5321C112.981 41.2665 111.244 41.289 109.918 41.3908L117.341 29.818C118.965 28.055 121.037 27.3382 123.15 27.3516Z" fill="#593C27"/>
<path d="M45.011 127.354C44.9002 127.465 44.8122 127.596 44.7523 127.74C44.6923 127.884 44.6616 128.039 44.6616 128.196C44.6616 128.352 44.6923 128.507 44.7523 128.651C44.8122 128.795 44.9002 128.926 45.011 129.037C45.011 129.037 46.1625 130.185 47.7535 131.21C49.3444 132.235 51.4727 133.299 53.6765 132.638C53.9769 132.548 54.2294 132.342 54.3788 132.066C54.5282 131.79 54.5624 131.467 54.4738 131.166C54.4292 131.016 54.3556 130.877 54.257 130.755C54.1583 130.634 54.0367 130.534 53.8991 130.459C53.7615 130.385 53.6107 130.339 53.4552 130.324C53.2998 130.308 53.1426 130.323 52.9931 130.369C51.995 130.668 50.3819 130.081 49.0327 129.212C47.6834 128.343 46.6933 127.354 46.6933 127.354C46.583 127.244 46.4518 127.156 46.3075 127.096C46.1631 127.036 46.0085 127.005 45.8521 127.005C45.6958 127.005 45.5411 127.036 45.3968 127.096C45.2524 127.156 45.1213 127.244 45.011 127.354Z" fill="#593C27"/>
<path d="M97.3065 97.5459L56.6963 160.493L36.1851 173.814L40.9811 150.148L74.795 97.5229C81.8737 99.9428 89.0822 94.7922 94.2951 90.6019C94.9962 92.9209 95.3104 95.085 97.3065 97.5459Z" fill="#593C27"/>
<path d="M43.6744 149.954C42.8273 149.941 41.93 150.001 40.9804 150.147L36.1841 173.814L56.6959 160.493C56.6959 160.493 53.6701 150.11 43.6744 149.954Z" fill="white"/>
<path d="M89.8816 107.825C89.7262 107.838 89.5748 107.882 89.4364 107.954C89.2979 108.026 89.175 108.125 89.0747 108.244C88.875 108.485 88.7785 108.795 88.8063 109.107C88.8342 109.419 88.9841 109.707 89.2234 109.909C89.2234 109.909 92.98 112.896 91.7131 119.198C91.0669 122.412 89.5541 125.432 87.051 127.608C84.5477 129.785 81.0282 131.172 76.0973 131.016C75.784 131.008 75.4803 131.124 75.2523 131.339C75.0243 131.554 74.8905 131.851 74.8802 132.164C74.8749 132.32 74.9006 132.475 74.9555 132.621C75.0103 132.767 75.0934 132.901 75.2 133.015C75.3066 133.129 75.4344 133.221 75.5765 133.285C75.7185 133.349 75.8718 133.385 76.0277 133.39C77.7308 133.444 79.3126 133.327 80.7734 133.059C80.7808 133.065 80.7883 133.071 80.7958 133.077C80.7958 133.077 85.2444 135.518 84.9221 142.294C84.7557 145.795 83.8788 148.893 81.5491 151.004C79.2193 153.114 75.2576 154.414 68.4419 153.809C68.2864 153.795 68.1297 153.812 67.9808 153.858C67.8318 153.905 67.6936 153.98 67.5739 154.081C67.4542 154.181 67.3553 154.303 67.2831 154.442C67.2109 154.58 67.1667 154.731 67.153 154.887C67.1254 155.2 67.2233 155.512 67.4255 155.753C67.6276 155.994 67.9172 156.146 68.2307 156.173C75.4291 156.812 80.177 155.453 83.144 152.765C86.111 150.078 87.1161 146.235 87.2985 142.401C87.5439 137.246 85.2072 133.973 83.5569 132.323C85.5182 131.63 87.2036 130.632 88.6128 129.407C91.5813 126.825 93.3054 123.294 94.0353 119.663C95.5203 112.276 90.7504 108.098 90.7504 108.098C90.6308 107.998 90.4925 107.922 90.3438 107.876C90.195 107.829 90.0368 107.811 89.8816 107.825Z" fill="#593C27"/>
<path d="M88.1613 93.9568C87.9743 93.9687 87.7926 94.0247 87.6314 94.1202C87.4703 94.2157 87.3341 94.348 87.2339 94.5063L51.2547 151.12C49.2737 149.781 46.7729 148.815 43.6926 148.767C43.5562 148.767 43.4161 148.768 43.2775 148.767L75.7909 98.169C75.8763 98.0374 75.9349 97.8902 75.9631 97.7359C75.9913 97.5815 75.9886 97.4234 75.9552 97.2701C75.9218 97.1168 75.8583 96.9716 75.7684 96.843C75.6786 96.7144 75.5641 96.6048 75.4316 96.5207C75.3003 96.4374 75.1539 96.3808 75.0007 96.3539C74.8475 96.3282 74.6907 96.3327 74.5393 96.3674C74.2318 96.4339 73.9631 96.6198 73.7926 96.8843L39.9811 149.508C39.9748 149.525 39.969 149.541 39.9633 149.557C39.9165 149.641 39.8797 149.729 39.8541 149.822C39.8391 149.854 39.8258 149.887 39.8138 149.921L35.0219 173.586C34.9774 173.814 35.001 174.05 35.0896 174.265C35.1781 174.48 35.3279 174.664 35.5203 174.795C35.7126 174.925 35.9389 174.997 36.1714 175C36.4039 175.003 36.6323 174.938 36.828 174.812L57.291 161.524L57.34 161.492C57.3431 161.488 57.3461 161.483 57.3491 161.479C57.4849 161.39 57.6008 161.274 57.69 161.138C57.6892 161.138 57.6908 161.138 57.69 161.138L57.7012 161.125C57.7004 161.125 57.702 161.125 57.7012 161.125L98.3031 98.1865C98.4728 97.9228 98.5313 97.6028 98.4658 97.2961C98.4002 96.9895 98.2159 96.7212 97.9532 96.55C97.6893 96.3796 97.3686 96.3207 97.0614 96.3863C96.7542 96.4518 96.4855 96.6366 96.3142 96.8999L56.9389 157.932C56.468 156.954 55.7967 155.757 54.878 154.559C54.375 153.904 53.7872 153.244 53.1185 152.614L89.2436 95.7754C89.3271 95.6436 89.3837 95.4968 89.4104 95.343C89.437 95.1893 89.4331 95.0317 89.3989 94.8795C89.3646 94.7273 89.3007 94.5834 89.2108 94.4559C89.1208 94.3284 89.0067 94.22 88.8748 94.1366C88.6626 94.0027 88.4117 93.9403 88.1613 93.9568ZM43.6554 151.141C48.2443 151.212 51.1283 153.576 52.9911 156.005C54.1898 157.567 54.9036 159.106 55.2629 160.011L37.9062 171.289L41.9772 151.22C42.5611 151.161 43.1213 151.133 43.6554 151.141Z" fill="#593C27"/>
<path d="M98.3335 58.5989C94.2146 58.6168 90.2881 59.5854 86.8142 61.7285C86.7137 61.776 80.0716 64.894 74.2587 70.1298C71.3303 72.7673 68.6077 75.9448 67.1 79.6021C66.8967 80.0957 66.7186 80.5994 66.5644 81.1111C66.0829 80.2802 65.5838 79.4625 65.0229 78.5959C65.7423 78.0128 66.4214 77.2537 66.9956 76.2732C67.0754 76.1386 67.1278 75.9895 67.1498 75.8345C67.1717 75.6796 67.1627 75.5219 67.1235 75.3704C67.0843 75.219 67.0156 75.0768 66.9212 74.9521C66.8268 74.8273 66.7085 74.7224 66.5734 74.6435C66.4386 74.5647 66.2895 74.5132 66.1348 74.4921C65.98 74.471 65.8228 74.4807 65.6718 74.5205C65.52 74.5599 65.3775 74.6287 65.2526 74.7234C65.1276 74.8181 65.0226 74.9368 64.9437 75.0723C63.732 77.1412 62.2058 77.7171 60.8777 77.8936C59.5496 78.0699 58.5478 77.7616 58.5478 77.7616C58.2469 77.6698 57.9218 77.7012 57.644 77.849C57.3662 77.9967 57.1583 78.2487 57.0663 78.5496C56.9742 78.8497 57.0047 79.1742 57.1511 79.4518C57.2976 79.7295 57.5481 79.9378 57.8477 80.0312C57.8477 80.0312 59.3355 80.4985 61.195 80.2513C61.7538 80.1778 62.3563 80.0303 62.9709 79.7903C64.1018 81.5313 64.9547 83.0207 65.936 84.911C65.8728 87.1067 66.3257 89.3973 67.4589 91.7105C68.1603 93.1425 68.9596 94.3487 69.8328 95.3478C70.8297 100.253 68.8629 105.378 65.732 107.588C65.7296 107.589 65.7344 107.602 65.732 107.602C62.0572 110.077 57.344 108.908 53.3433 106.918C49.3365 104.925 46.3072 102.23 46.3072 102.23C46.0725 102.021 45.7645 101.914 45.4508 101.932C45.137 101.95 44.8433 102.091 44.6337 102.325C44.4239 102.559 44.3152 102.867 44.3317 103.18C44.3482 103.494 44.4884 103.788 44.7216 103.999C44.7216 103.999 47.9411 106.879 52.2837 109.039C56.6262 111.199 62.3553 112.757 67.0811 109.556C67.0871 109.552 67.0929 109.547 67.0989 109.543C70.5597 107.104 72.6172 102.486 72.4819 97.6338C73.463 98.2521 74.49 98.6869 75.5442 98.9481C78.6649 99.7209 81.8811 99.0778 84.7546 97.9583C90.5014 95.7186 95.0941 91.4742 95.0941 91.4742C95.326 91.2624 95.4646 90.9673 95.4794 90.6536C95.4942 90.3399 95.3839 90.0331 95.173 89.8004C95.0679 89.6842 94.9411 89.5899 94.7995 89.523C94.6579 89.4562 94.5042 89.4181 94.3477 89.4108C94.1913 89.4035 94.035 89.4272 93.8877 89.4806C93.7405 89.534 93.6053 89.6159 93.4899 89.7218C93.4899 89.7218 89.0888 93.7183 83.8948 95.7423C81.2978 96.7544 78.5548 97.2484 76.1148 96.6442C73.6749 96.04 71.4152 94.4002 69.5867 90.6676C68.6119 88.6777 68.2277 86.7908 68.2836 84.9743C68.3295 84.8082 68.3389 84.6341 68.3107 84.4642C68.4148 83.1097 68.758 81.7927 69.2891 80.5043C70.5939 77.3393 73.0866 74.3923 75.852 71.9016C81.3828 66.92 87.916 63.813 87.916 63.813C87.9581 63.7952 87.9991 63.775 88.0389 63.7525C94.5787 59.7054 103.206 60.3413 111.81 64.0052C116.112 65.8374 120.38 68.4172 124.312 71.4977C124.56 71.6914 124.874 71.7789 125.186 71.7411C125.499 71.7034 125.783 71.5433 125.977 71.2962C126.171 71.0485 126.258 70.7342 126.22 70.4222C126.183 70.1101 126.022 69.8259 125.775 69.6317C121.694 66.4343 117.26 63.7396 112.74 61.8145C108.219 59.8894 103.586 58.7225 99.1572 58.6084C98.8808 58.595 98.6081 58.5989 98.3335 58.5989Z" fill="#593C27"/>
<path d="M38.5232 162.276L36.1841 173.814L46.2591 167.27C45.4017 165.933 44.2674 164.795 42.9329 163.934C41.5984 163.072 40.0947 162.507 38.5232 162.276Z" fill="#593C27"/>
<path d="M94.0859 89.4331C93.9322 89.46 93.7854 89.5169 93.6538 89.6007C93.5222 89.6844 93.4084 89.7933 93.3189 89.921C93.2294 90.0488 93.166 90.1928 93.1322 90.3451C93.0984 90.4974 93.0949 90.6551 93.1221 90.8087C94.415 98.1466 100.099 102.602 105.284 105.169C110.468 107.737 115.333 108.525 115.333 108.525C115.488 108.551 115.645 108.546 115.798 108.51C115.95 108.475 116.094 108.41 116.221 108.318C116.348 108.227 116.456 108.112 116.538 107.979C116.62 107.846 116.675 107.698 116.7 107.544C116.75 107.234 116.674 106.916 116.49 106.662C116.306 106.407 116.029 106.236 115.719 106.186C115.719 106.186 111.173 105.432 106.344 103.04C101.514 100.648 96.5763 96.7237 95.4615 90.3969C95.4345 90.2432 95.3776 90.0962 95.2939 89.9646C95.2102 89.8329 95.1013 89.7192 94.9736 89.6297C94.8458 89.5402 94.7015 89.4767 94.5492 89.4429C94.3969 89.4092 94.2395 89.4059 94.0859 89.4331Z" fill="#593C27"/>
</svg>
